<svg xmlns="http://www.w3.org/2000/svg" xmlns:xlink="http://www.w3.org/1999/xlink" width="603" zoomAndPan="magnify" viewBox="0 0 452.25 761.249994" height="1015" preserveAspectRatio="xMidYMid meet" version="1.0"><defs><clipPath id="a0adf4e10f"><path d="M 115 660 L 284 660 L 284 759.496094 L 115 759.496094 Z M 115 660 " clip-rule="nonzero"/></clipPath><clipPath id="59633bb027"><path d="M 168 51 L 450.753906 51 L 450.753906 525.632812 L 168 525.632812 Z M 168 51 " clip-rule="nonzero"/></clipPath></defs><path fill="#121213" d="M 117.058594 600.292969 C 117.773438 605.347656 119.160156 610.347656 120.625 615.3125 C 118.488281 610.582031 116.734375 605.683594 115.507812 600.578125 C 115.195312 599.300781 114.96875 597.996094 114.792969 596.664062 C 114.644531 595.320312 114.683594 593.949219 114.769531 592.597656 C 115.015625 589.933594 115.492188 587.351562 116.050781 584.792969 C 117.214844 579.683594 118.640625 574.679688 120.234375 569.726562 C 121.84375 564.777344 123.484375 559.863281 125.359375 554.996094 L 125.917969 553.53125 L 127.480469 553.835938 L 140.976562 556.496094 L 154.441406 559.28125 L 156.621094 559.730469 L 155.816406 561.8125 C 153.957031 566.617188 152.132812 571.519531 150.535156 576.449219 C 148.949219 581.394531 147.414062 586.351562 146.304688 591.398438 C 145.125 596.40625 144.652344 601.546875 144.636719 606.710938 C 144.730469 611.875 145.40625 617.082031 147.070312 622.050781 C 144.734375 617.328125 143.652344 612.066406 143.050781 606.804688 C 142.527344 601.519531 142.777344 596.140625 143.648438 590.878906 C 144.574219 585.65625 145.804688 580.507812 147.304688 575.449219 C 148.605469 571.109375 149.972656 566.804688 151.546875 562.539062 L 140.203125 560.300781 L 128.285156 557.835938 C 126.625 562.128906 124.957031 566.453125 123.429688 570.804688 C 121.742188 575.660156 120.011719 580.511719 118.664062 585.441406 C 117.984375 587.90625 117.335938 590.375 116.949219 592.847656 C 116.5625 595.273438 116.707031 597.753906 117.058594 600.292969 Z M 123.992188 656.789062 L 154.328125 664.054688 L 154.003906 643.226562 L 178.957031 647.71875 C 142.917969 618.941406 189.066406 521.191406 189.066406 521.191406 L 121.65625 504.859375 C 121.65625 504.859375 103.824219 564.316406 97.46875 586.617188 C 89.507812 614.53125 123.734375 637.347656 123.734375 637.347656 L 123.992188 656.789062 " fill-opacity="1" fill-rule="nonzero"/><path fill="#121213" d="M 253.371094 602.710938 C 253.269531 600.816406 253.144531 598.929688 252.84375 597.066406 C 252.730469 596.132812 252.527344 595.207031 252.363281 594.28125 C 252.273438 593.820312 252.152344 593.363281 252.050781 592.90625 C 251.945312 592.449219 251.84375 591.988281 251.710938 591.539062 L 251.332031 590.183594 C 251.195312 589.734375 251.042969 589.285156 250.902344 588.839844 L 250.6875 588.167969 C 250.613281 587.945312 250.527344 587.730469 250.445312 587.511719 L 249.957031 586.195312 L 249.410156 584.902344 C 249.316406 584.683594 249.230469 584.46875 249.132812 584.253906 L 248.832031 583.621094 C 248.625 583.203125 248.4375 582.773438 248.222656 582.359375 L 247.566406 581.125 C 246.65625 579.492188 245.695312 577.894531 244.582031 576.402344 L 244.179688 575.835938 L 243.746094 575.285156 C 243.453125 574.925781 243.175781 574.550781 242.878906 574.199219 L 241.964844 573.148438 C 241.816406 572.964844 241.65625 572.796875 241.5 572.628906 L 241.015625 572.128906 C 240.695312 571.792969 240.382812 571.453125 240.039062 571.140625 L 239.035156 570.179688 C 238.339844 569.578125 237.65625 568.953125 236.917969 568.394531 C 236.207031 567.804688 235.4375 567.292969 234.691406 566.757812 C 233.910156 566.261719 233.144531 565.75 232.332031 565.3125 C 231.933594 565.085938 231.535156 564.855469 231.121094 564.660156 C 230.707031 564.457031 230.300781 564.246094 229.886719 564.046875 L 228.625 563.503906 L 228.308594 563.363281 L 227.984375 563.246094 L 227.339844 563.007812 L 226.699219 562.765625 C 226.480469 562.6875 226.261719 562.625 226.042969 562.554688 C 225.605469 562.425781 225.175781 562.269531 224.730469 562.152344 L 223.40625 561.8125 C 223.183594 561.753906 222.957031 561.707031 222.734375 561.664062 L 222.058594 561.535156 L 221.386719 561.40625 L 220.707031 561.308594 C 220.253906 561.25 219.804688 561.171875 219.347656 561.132812 L 217.984375 561.023438 C 217.757812 561 217.527344 560.996094 217.300781 560.992188 L 216.617188 560.980469 L 215.933594 560.964844 C 215.703125 560.960938 215.476562 560.980469 215.246094 560.984375 C 214.792969 561.007812 214.335938 561.015625 213.882812 561.039062 C 212.972656 561.132812 212.0625 561.195312 211.164062 561.359375 C 210.714844 561.425781 210.261719 561.488281 209.816406 561.59375 L 208.484375 561.875 C 207.601562 562.113281 206.714844 562.328125 205.855469 562.632812 L 205.207031 562.84375 C 204.988281 562.914062 204.78125 563.007812 204.570312 563.085938 C 204.144531 563.253906 203.71875 563.414062 203.296875 563.589844 L 202.050781 564.15625 C 201.84375 564.246094 201.636719 564.347656 201.433594 564.453125 L 200.832031 564.773438 L 200.222656 565.085938 C 200.019531 565.195312 199.828125 565.320312 199.632812 565.433594 C 199.242188 565.667969 198.839844 565.890625 198.457031 566.136719 L 197.316406 566.890625 C 196.929688 567.140625 196.574219 567.429688 196.203125 567.691406 L 195.648438 568.101562 L 195.117188 568.53125 C 194.769531 568.824219 194.402344 569.105469 194.0625 569.410156 L 193.042969 570.328125 C 192.699219 570.628906 192.390625 570.972656 192.058594 571.289062 L 191.574219 571.769531 C 191.414062 571.933594 191.257812 572.105469 191.101562 572.273438 C 190.796875 572.609375 190.476562 572.941406 190.175781 573.285156 C 189.589844 573.988281 188.984375 574.683594 188.441406 575.425781 C 187.871094 576.140625 187.367188 576.914062 186.84375 577.664062 L 186.109375 578.832031 C 185.988281 579.027344 185.863281 579.21875 185.746094 579.417969 L 185.410156 580.019531 C 184.484375 581.605469 183.699219 583.277344 182.984375 584.972656 L 182.472656 586.253906 C 182.304688 586.683594 182.167969 587.125 182.011719 587.558594 C 181.691406 588.421875 181.449219 589.308594 181.171875 590.191406 C 179.183594 597.292969 178.886719 604.878906 180.230469 612.164062 C 180.914062 615.8125 182.027344 619.375 183.5625 622.757812 C 185.074219 626.15625 187.054688 629.339844 189.402344 632.238281 C 191.75 635.136719 194.515625 637.695312 197.601562 639.832031 C 199.148438 640.890625 200.785156 641.824219 202.484375 642.628906 C 204.183594 643.449219 205.953125 644.128906 207.769531 644.652344 C 205.917969 644.25 204.097656 643.695312 202.328125 642.988281 C 200.5625 642.277344 198.855469 641.417969 197.214844 640.433594 C 195.578125 639.4375 194.03125 638.304688 192.5625 637.070312 C 191.097656 635.832031 189.710938 634.5 188.4375 633.058594 C 185.902344 630.171875 183.734375 626.945312 182.03125 623.484375 C 181.171875 621.757812 180.421875 619.972656 179.804688 618.144531 C 179.1875 616.3125 178.648438 614.457031 178.253906 612.5625 C 177.859375 610.675781 177.550781 608.757812 177.371094 606.832031 C 177.316406 606.355469 177.296875 605.871094 177.261719 605.390625 L 177.214844 604.664062 L 177.195312 603.9375 C 177.1875 603.457031 177.164062 602.972656 177.167969 602.488281 L 177.1875 601.035156 C 177.1875 600.554688 177.214844 600.070312 177.246094 599.585938 C 177.277344 599.101562 177.300781 598.621094 177.335938 598.136719 L 177.484375 596.691406 L 177.5625 595.96875 L 177.664062 595.246094 L 177.882812 593.808594 L 178.15625 592.382812 L 178.300781 591.667969 L 178.46875 590.960938 C 178.585938 590.488281 178.695312 590.015625 178.8125 589.546875 C 180.828125 582.046875 184.714844 575.003906 190.230469 569.453125 L 190.75 568.9375 C 190.925781 568.765625 191.097656 568.59375 191.28125 568.433594 L 192.378906 567.457031 C 192.742188 567.136719 193.132812 566.835938 193.511719 566.527344 L 194.082031 566.066406 L 194.675781 565.632812 C 195.074219 565.351562 195.457031 565.046875 195.871094 564.78125 L 197.101562 563.976562 C 197.511719 563.714844 197.945312 563.480469 198.363281 563.230469 C 198.578125 563.109375 198.789062 562.980469 199 562.863281 L 200.3125 562.191406 C 200.527344 562.074219 200.746094 561.972656 200.972656 561.871094 L 202.316406 561.269531 C 202.769531 561.082031 203.230469 560.914062 203.6875 560.738281 C 203.917969 560.648438 204.140625 560.554688 204.375 560.480469 L 205.078125 560.253906 C 206.003906 559.933594 206.960938 559.703125 207.90625 559.453125 C 208.875 559.257812 209.828125 559.039062 210.808594 558.929688 C 211.777344 558.769531 212.757812 558.714844 213.734375 558.636719 C 214.222656 558.613281 214.710938 558.609375 215.203125 558.597656 C 215.449219 558.597656 215.695312 558.585938 215.9375 558.589844 L 216.671875 558.617188 L 217.410156 558.644531 C 217.652344 558.652344 217.898438 558.660156 218.140625 558.691406 L 219.605469 558.828125 C 220.089844 558.878906 220.574219 558.96875 221.058594 559.039062 L 221.78125 559.15625 L 222.503906 559.308594 L 223.21875 559.457031 C 223.460938 559.507812 223.699219 559.558594 223.933594 559.625 L 225.347656 560.011719 C 225.820312 560.148438 226.277344 560.316406 226.746094 560.46875 C 226.976562 560.542969 227.210938 560.617188 227.4375 560.703125 L 228.117188 560.972656 L 228.796875 561.25 L 229.136719 561.382812 L 230.792969 562.160156 C 231.230469 562.378906 231.65625 562.613281 232.089844 562.839844 C 232.519531 563.0625 232.9375 563.316406 233.351562 563.570312 C 234.199219 564.050781 234.992188 564.613281 235.796875 565.15625 C 236.574219 565.742188 237.367188 566.304688 238.097656 566.941406 C 238.855469 567.546875 239.554688 568.21875 240.265625 568.875 C 240.609375 569.210938 240.949219 569.558594 241.285156 569.90625 C 241.628906 570.246094 241.949219 570.613281 242.265625 570.976562 L 242.75 571.519531 C 242.90625 571.699219 243.066406 571.878906 243.214844 572.074219 L 244.121094 573.199219 C 244.417969 573.578125 244.691406 573.976562 244.980469 574.363281 L 245.402344 574.945312 L 245.800781 575.550781 C 246.894531 577.140625 247.832031 578.824219 248.691406 580.539062 C 252.105469 587.429688 253.628906 595.144531 253.371094 602.710938 Z M 227.960938 628.273438 C 227.960938 628.273438 208.738281 637.789062 199.804688 618.160156 C 191.660156 600.273438 199.183594 584.457031 210.074219 581.472656 Z M 232.769531 625.9375 L 215.257812 578.492188 C 215.257812 578.492188 234.632812 571.695312 241.964844 591.972656 C 249.742188 613.496094 232.769531 625.9375 232.769531 625.9375 Z M 238.851562 528.710938 C 214.535156 526.933594 192.203125 522.492188 192.203125 522.492188 C 192.203125 522.492188 178.507812 553.507812 171.441406 584.457031 C 164.902344 613.054688 167.4375 642.015625 188.03125 650.570312 C 188.039062 650.574219 188.046875 650.582031 188.058594 650.582031 C 171.171875 649.71875 156.140625 645.648438 156.140625 645.648438 L 156.660156 664.746094 L 261.769531 669.332031 L 245.484375 623.589844 C 275.5 586.683594 297.289062 528.191406 297.289062 528.191406 C 297.289062 528.191406 265.007812 530.625 238.851562 528.710938 " fill-opacity="1" fill-rule="nonzero"/><g clip-path="url(#a0adf4e10f)"><path fill="#121213" d="M 154.328125 670.324219 L 115.007812 660.375 L 119.011719 759.679688 L 283.898438 759.753906 L 266.332031 672.867188 L 154.328125 670.324219 " fill-opacity="1" fill-rule="nonzero"/></g><path fill="#121213" d="M 165.40625 497.359375 C 165.40625 497.359375 126.746094 475.898438 117.183594 467.796875 C 83.234375 439.035156 82.035156 426.066406 83.234375 389.507812 C 83.367188 385.464844 88.359375 379.945312 92.3125 380.804688 C 97.496094 381.9375 101.492188 386.050781 100.460938 400.109375 C 98.152344 431.632812 109.722656 448.78125 122.238281 461.578125 C 139.738281 479.46875 175.128906 497.359375 175.128906 497.359375 Z M 146.277344 499.300781 C 146.277344 499.300781 98.742188 469.679688 89.183594 461.578125 C 55.230469 432.816406 52.949219 415.433594 55.75 383.289062 C 56.105469 379.257812 60.355469 373.722656 64.3125 374.582031 C 69.496094 375.714844 70.3125 378.6875 69.285156 392.742188 C 66.972656 424.265625 74.402344 440.132812 91.582031 457.6875 C 109.082031 475.578125 148.792969 498.632812 148.792969 498.632812 Z M 127.386719 497.398438 C 127.386719 497.398438 79.855469 467.777344 70.296875 459.675781 C 36.34375 430.914062 34 414.222656 36.800781 382.074219 C 37.152344 378.042969 40.167969 370.308594 44.394531 372.5625 C 46.46875 373.664062 46.457031 380.003906 45.429688 394.0625 C 43.121094 425.582031 55.515625 438.230469 72.695312 455.789062 C 90.191406 473.675781 129.910156 496.734375 129.910156 496.734375 Z M 37.652344 325.007812 C 39.875 322.785156 54.203125 321.203125 77.941406 323.394531 C 76.179688 330.84375 74.65625 337.472656 73.382812 343.101562 C 47.65625 339.859375 33.769531 340.550781 33.769531 340.550781 C 39.601562 332.777344 35.152344 327.507812 37.652344 325.007812 Z M 25.566406 382.074219 C 25.917969 378.042969 26.589844 374.496094 29.183594 375.394531 C 30.488281 375.847656 29.445312 382.613281 28.492188 396.675781 C 27.339844 413.617188 32.8125 426.902344 32.8125 426.902344 C 32.8125 426.902344 22.765625 414.222656 25.566406 382.074219 Z M 47.371094 290.039062 C 49.558594 287.847656 63.460938 286.28125 86.546875 288.320312 C 84.796875 295.199219 83.167969 301.765625 81.65625 307.957031 C 56.855469 304.917969 43.484375 305.582031 43.484375 305.582031 C 49.3125 297.808594 44.867188 292.539062 47.371094 290.039062 Z M 59.023438 255.066406 C 61.136719 252.957031 74.167969 251.425781 95.804688 253.152344 C 93.988281 259.8125 92.246094 266.332031 90.585938 272.660156 C 67.527344 269.996094 55.136719 270.609375 55.136719 270.609375 C 60.96875 262.835938 56.527344 257.570312 59.023438 255.066406 Z M 70.679688 220.097656 C 72.738281 218.042969 85.128906 216.53125 105.757812 218.046875 C 103.832031 224.585938 101.964844 231.066406 100.160156 237.457031 C 78.449219 235.066406 66.796875 235.640625 66.796875 235.640625 C 72.625 227.867188 68.179688 222.597656 70.679688 220.097656 Z M 80.398438 187.070312 C 82.464844 185 95.007812 183.484375 115.878906 185.046875 C 113.8125 191.511719 111.796875 197.980469 109.835938 204.425781 C 88.148438 202.039062 76.511719 202.613281 76.511719 202.613281 C 82.339844 194.84375 77.898438 189.570312 80.398438 187.070312 Z M 90.109375 150.15625 C 92.265625 148 105.800781 146.449219 128.265625 148.351562 C 125.976562 154.75 123.742188 161.222656 121.554688 167.734375 C 98.566406 165.082031 86.222656 165.699219 86.222656 165.699219 C 92.050781 157.925781 87.609375 152.65625 90.109375 150.15625 Z M 99.824219 115.1875 C 102.089844 112.925781 116.910156 111.328125 141.457031 113.699219 C 138.882812 120.015625 136.351562 126.488281 133.867188 133.074219 C 109.222656 130.074219 95.941406 130.730469 95.941406 130.730469 C 101.765625 122.960938 97.324219 117.6875 99.824219 115.1875 Z M 115.367188 80.214844 C 117.707031 77.875 132.046875 76.246094 156.96875 78.980469 C 153.933594 85.121094 150.941406 91.554688 148.007812 98.234375 C 123.773438 95.078125 111.484375 95.757812 111.484375 95.757812 C 117.308594 87.988281 112.867188 82.714844 115.367188 80.214844 Z M 138.4375 48.453125 C 148 33.359375 159.382812 32.171875 159.382812 32.171875 C 159.382812 32.171875 151.128906 38.546875 145.75 47.867188 C 143.140625 52.394531 137.550781 65.914062 133.058594 63.246094 C 129.675781 61.238281 136.332031 51.777344 138.4375 48.453125 Z M 188.984375 23.984375 C 188.984375 23.984375 178.765625 31.875 172.105469 43.410156 C 168.875 49.011719 161.964844 65.746094 156.402344 62.445312 C 152.214844 59.957031 160.449219 48.25 163.058594 44.136719 C 174.898438 25.457031 188.984375 23.984375 188.984375 23.984375 Z M 227.355469 23.984375 C 227.355469 23.984375 213.179688 33.921875 206.269531 44.382812 C 202.003906 50.828125 191.699219 67.109375 182.546875 63.867188 C 178.398438 62.398438 189.070312 47.546875 192.269531 42.652344 C 204.453125 23.984375 227.355469 23.984375 227.355469 23.984375 Z M 237.554688 37.378906 C 263.480469 28.308594 279.300781 38.675781 279.300781 38.675781 C 279.300781 38.675781 267.890625 40.492188 261.667969 44.136719 C 256.613281 47.097656 250.082031 48.972656 243 58.125 C 236.773438 66.160156 221.25 71.953125 217.695312 65.382812 C 213.71875 58.035156 229.074219 40.347656 237.554688 37.378906 Z M 322.265625 127.710938 C 325.179688 129.457031 328.789062 135.503906 326.976562 140.019531 C 324.382812 146.5 321.53125 150.136719 310.902344 145.210938 C 285.957031 133.648438 241.964844 118.753906 214.707031 111.636719 C 192.128906 105.742188 173.21875 102.019531 157.984375 99.664062 C 161 92.914062 164.0625 86.425781 167.167969 80.269531 C 181.835938 82.355469 199.417969 85.796875 219.742188 91.152344 C 250.179688 99.175781 306.707031 118.378906 322.265625 127.710938 Z M 315.320312 174.996094 C 312.726562 181.46875 309.875 185.105469 299.246094 180.179688 C 274.300781 168.621094 230.304688 153.722656 203.054688 146.609375 C 179.710938 140.511719 159.820312 136.730469 143.730469 134.390625 C 146.269531 127.726562 148.851562 121.1875 151.484375 114.824219 C 167.320312 116.855469 186.371094 120.398438 208.085938 126.121094 C 238.519531 134.148438 295.054688 153.347656 310.609375 162.683594 C 313.519531 164.433594 317.132812 170.472656 315.320312 174.996094 Z M 305.609375 209.960938 C 303.015625 216.441406 300.164062 220.078125 289.527344 215.148438 C 264.589844 203.589844 220.59375 188.691406 193.339844 181.578125 C 168.6875 175.144531 147.894531 171.292969 131.359375 168.988281 C 133.585938 162.386719 135.871094 155.832031 138.203125 149.363281 C 154.714844 151.300781 174.996094 154.929688 198.371094 161.09375 C 228.804688 169.117188 285.335938 188.320312 300.894531 197.652344 C 303.808594 199.398438 307.417969 205.441406 305.609375 209.960938 Z M 295.890625 246.875 C 293.300781 253.351562 290.445312 256.988281 279.816406 252.066406 C 254.875 240.503906 210.878906 225.605469 183.625 218.492188 C 157.960938 211.792969 136.453125 207.886719 119.605469 205.617188 C 121.601562 199.082031 123.65625 192.519531 125.761719 185.96875 C 142.753906 187.820312 163.976562 191.5 188.65625 198.007812 C 219.09375 206.03125 275.625 225.234375 291.179688 234.566406 C 294.09375 236.316406 297.703125 242.355469 295.890625 246.875 Z M 286.175781 279.902344 C 283.582031 286.378906 280.734375 290.019531 270.101562 285.089844 C 245.160156 273.53125 201.167969 258.632812 173.910156 251.519531 C 148.25 244.820312 126.75 240.914062 109.902344 238.644531 C 111.734375 232.160156 113.636719 225.582031 115.597656 218.949219 C 132.660156 220.78125 154.042969 224.46875 178.941406 231.035156 C 209.375 239.058594 265.910156 258.261719 281.464844 267.59375 C 284.382812 269.339844 287.988281 275.382812 286.175781 279.902344 Z M 274.523438 314.875 C 271.929688 321.347656 269.078125 324.988281 258.445312 320.058594 C 233.503906 308.5 189.507812 293.601562 162.253906 286.484375 C 137.609375 280.054688 116.828125 276.203125 100.296875 273.90625 C 101.980469 267.472656 103.75 260.863281 105.601562 254.09375 C 122.382812 255.992188 143.195312 259.652344 167.285156 266.003906 C 197.722656 274.03125 254.25 293.230469 269.8125 302.566406 C 272.722656 304.3125 276.332031 310.351562 274.523438 314.875 Z M 262.863281 349.84375 C 260.273438 356.320312 257.417969 359.953125 246.789062 355.03125 C 221.847656 343.472656 177.851562 328.574219 150.597656 321.457031 C 127.285156 315.375 107.410156 311.59375 91.335938 309.253906 C 92.871094 302.972656 94.527344 296.316406 96.300781 289.347656 C 112.664062 291.308594 132.648438 294.914062 155.628906 300.976562 C 186.0625 309 242.597656 328.203125 258.152344 337.535156 C 261.066406 339.28125 264.675781 345.320312 262.863281 349.84375 Z M 253.148438 384.816406 C 250.554688 391.289062 247.707031 394.929688 237.078125 390 C 212.132812 378.441406 168.136719 363.542969 140.882812 356.425781 C 118.246094 350.515625 98.863281 346.789062 83.039062 344.4375 C 84.335938 338.707031 85.882812 332 87.671875 324.445312 C 103.832031 326.4375 123.4375 330.019531 145.917969 335.945312 C 176.347656 343.972656 232.882812 363.171875 248.441406 372.503906 C 251.351562 374.25 254.960938 380.292969 253.148438 384.816406 Z M 188.554688 494.246094 C 188.554688 494.246094 160.4375 476.25 150.238281 468.964844 C 125.738281 451.46875 114.039062 430.078125 115.238281 393.519531 C 115.371094 389.476562 120.703125 384.652344 127.292969 386.132812 C 133.828125 387.601562 136.535156 394.6875 136.925781 402.464844 C 137.820312 420.367188 138.769531 438.582031 154.871094 456.15625 C 171.777344 474.609375 196.339844 490.96875 196.339844 490.96875 Z M 200.847656 508.777344 C 201.503906 508.558594 202.148438 508.320312 202.792969 508.089844 L 203.769531 507.746094 C 204.09375 507.632812 204.410156 507.492188 204.726562 507.371094 L 206.644531 506.609375 C 207.28125 506.347656 207.902344 506.058594 208.539062 505.785156 C 209.804688 505.25 211.019531 504.613281 212.257812 504.011719 C 212.570312 503.863281 212.871094 503.699219 213.167969 503.535156 L 214.074219 503.042969 L 214.976562 502.550781 L 215.429688 502.304688 L 215.871094 502.035156 C 220.601562 499.253906 225.050781 495.988281 229.0625 492.261719 C 233.078125 488.523438 236.691406 484.371094 239.878906 479.914062 C 243.066406 475.453125 245.835938 470.707031 248.230469 465.773438 C 248.53125 465.15625 248.84375 464.542969 249.128906 463.921875 L 249.964844 462.039062 L 250.800781 460.160156 C 251.0625 459.527344 251.3125 458.886719 251.566406 458.25 C 252.613281 455.726562 253.542969 453.109375 254.511719 450.523438 L 260.285156 434.976562 C 260.773438 433.683594 261.222656 432.375 261.691406 431.074219 L 265.867188 419.359375 L 268.660156 411.550781 L 271.375 403.71875 L 276.792969 388.042969 L 282.042969 372.308594 L 284.679688 364.449219 C 285.550781 361.824219 286.390625 359.191406 287.25 356.5625 L 292.378906 340.792969 C 292.808594 339.476562 293.230469 338.160156 293.640625 336.839844 L 294.886719 332.882812 L 297.375 324.976562 C 299.03125 319.703125 300.710938 314.433594 302.3125 309.140625 L 307.179688 293.285156 C 307.585938 291.964844 308 290.648438 308.394531 289.320312 L 309.574219 285.347656 L 314.304688 269.449219 L 315.484375 265.476562 L 316.632812 261.492188 L 321.234375 245.558594 C 327.28125 224.285156 333.183594 202.96875 338.65625 181.546875 L 339.703125 177.535156 C 340.050781 176.195312 340.398438 174.863281 340.722656 173.515625 L 342.710938 165.46875 C 344.027344 160.097656 345.382812 154.738281 346.605469 149.351562 L 348.492188 141.277344 L 349.433594 137.238281 C 349.75 135.894531 350.023438 134.539062 350.320312 133.1875 L 352.058594 125.082031 C 352.628906 122.378906 353.242188 119.683594 353.742188 116.96875 L 355.3125 108.832031 L 356.101562 104.761719 C 356.34375 103.402344 356.550781 102.039062 356.78125 100.679688 C 357.703125 95.234375 358.339844 89.75 358.824219 84.253906 L 359.121094 80.128906 L 359.285156 75.988281 C 359.324219 75.300781 359.3125 74.609375 359.324219 73.917969 L 359.332031 71.851562 C 359.332031 71.507812 359.339844 71.160156 359.332031 70.8125 L 359.300781 69.777344 L 359.242188 67.710938 C 359.234375 67.023438 359.175781 66.335938 359.136719 65.644531 L 359.003906 63.578125 L 358.796875 61.519531 C 358.761719 61.175781 358.734375 60.828125 358.6875 60.484375 L 358.546875 59.460938 C 358.449219 58.777344 358.367188 58.089844 358.234375 57.414062 C 358.109375 56.734375 358.003906 56.050781 357.847656 55.378906 L 357.628906 54.367188 L 357.367188 53.363281 C 357.195312 52.695312 356.996094 52.03125 356.75 51.386719 C 341.664062 42.707031 326.097656 35.773438 311.082031 30.558594 C 225.710938 0.902344 157.835938 0.21875 121.273438 50.78125 C 93.871094 88.679688 75.402344 152.417969 54.375 225.035156 C 31.699219 303.328125 0.0078125 385.871094 29.480469 433.515625 C 56.636719 477.410156 113.65625 501.472656 168.25 513.820312 C 173.78125 513.726562 179.304688 513.359375 184.757812 512.53125 C 190.226562 511.746094 195.617188 510.484375 200.847656 508.777344 " fill-opacity="1" fill-rule="nonzero"/><g clip-path="url(#59633bb027)"><path fill="#121213" d="M 436.25 210.320312 C 435.371094 211.507812 435.035156 213.777344 435.035156 213.777344 C 435.035156 213.777344 390.316406 184.453125 371.429688 174.367188 C 366.894531 171.945312 364.511719 164.859375 367.632812 159.40625 C 371.378906 152.851562 376.710938 155.175781 379.300781 156.683594 C 395.328125 166.039062 436.074219 188.023438 439.964844 199.460938 C 440.921875 202.261719 439.183594 206.34375 436.25 210.320312 Z M 427.429688 244.804688 C 426.558594 245.988281 426.222656 248.257812 426.222656 248.257812 C 426.222656 248.257812 381.5 218.9375 362.613281 208.851562 C 358.082031 206.429688 355.699219 199.34375 358.820312 193.890625 C 362.566406 187.332031 367.898438 189.65625 370.480469 191.167969 C 386.511719 200.523438 427.257812 222.503906 431.152344 233.945312 C 432.105469 236.742188 430.371094 240.824219 427.429688 244.804688 Z M 418.109375 278.941406 C 417.246094 280.132812 416.933594 282.414062 416.933594 282.414062 C 416.933594 282.414062 371.90625 253.554688 352.917969 243.664062 C 348.359375 241.292969 345.902344 234.230469 348.964844 228.75 C 352.644531 222.152344 358 224.417969 360.601562 225.902344 C 376.726562 235.089844 417.703125 256.644531 421.710938 268.046875 C 422.695312 270.832031 421.003906 274.9375 418.109375 278.941406 Z M 409.527344 312.773438 C 408.683594 313.984375 408.417969 316.261719 408.417969 316.261719 C 408.417969 316.261719 362.839844 288.289062 343.65625 278.769531 C 339.054688 276.488281 336.464844 269.472656 339.417969 263.933594 C 342.96875 257.265625 348.371094 259.429688 351 260.863281 C 367.296875 269.734375 408.683594 290.492188 412.917969 301.808594 C 413.953125 304.578125 412.34375 308.710938 409.527344 312.773438 Z M 399.269531 345.59375 C 398.460938 346.828125 398.253906 349.113281 398.253906 349.113281 C 398.253906 349.113281 351.964844 322.328125 332.546875 313.3125 C 327.882812 311.148438 325.113281 304.207031 327.921875 298.589844 C 331.300781 291.835938 336.753906 293.855469 339.417969 295.21875 C 355.945312 303.664062 397.851562 323.34375 402.378906 334.550781 C 403.484375 337.292969 401.980469 341.460938 399.269531 345.59375 Z M 389.796875 377.378906 C 388.992188 378.539062 388.78125 380.691406 388.78125 380.691406 C 388.78125 380.691406 342.890625 355.613281 323.628906 347.179688 C 319.007812 345.160156 316.277344 338.625 319.082031 333.332031 C 322.457031 326.964844 327.863281 328.851562 330.511719 330.128906 C 346.890625 338.03125 388.457031 356.429688 392.917969 366.96875 C 394.007812 369.542969 392.507812 373.476562 389.796875 377.378906 Z M 379.167969 412.121094 C 378.359375 413.28125 378.152344 415.433594 378.152344 415.433594 C 378.152344 415.433594 332.261719 390.351562 313 381.925781 C 308.382812 379.902344 305.644531 373.375 308.453125 368.078125 C 311.824219 361.707031 317.234375 363.597656 319.878906 364.871094 C 336.265625 372.773438 377.828125 391.175781 382.285156 401.714844 C 383.378906 404.289062 381.875 408.222656 379.167969 412.121094 Z M 371.421875 445.996094 C 370.621094 447.15625 370.453125 449.269531 370.453125 449.269531 C 370.453125 449.269531 323.105469 425.894531 303.285156 418.132812 C 298.527344 416.273438 295.601562 409.949219 298.355469 404.683594 C 301.664062 398.355469 307.222656 400.0625 309.949219 401.242188 C 326.832031 408.558594 369.617188 425.507812 374.386719 435.714844 C 375.554688 438.210938 374.097656 442.105469 371.421875 445.996094 Z M 447.21875 158.136719 C 433.5625 109.898438 396.875 74.472656 356.75 51.386719 C 357.011719 52.027344 357.230469 52.683594 357.421875 53.351562 L 357.707031 54.34375 L 357.949219 55.355469 C 358.128906 56.027344 358.25 56.707031 358.390625 57.386719 C 358.542969 58.0625 358.644531 58.75 358.757812 59.429688 L 358.925781 60.457031 C 358.984375 60.796875 359.015625 61.140625 359.0625 61.484375 L 359.324219 63.546875 L 359.507812 65.617188 C 359.566406 66.308594 359.644531 66.996094 359.671875 67.6875 L 359.777344 69.765625 L 359.832031 70.800781 C 359.84375 71.148438 359.84375 71.492188 359.851562 71.84375 L 359.886719 73.917969 C 359.898438 74.609375 359.914062 75.308594 359.894531 76 L 359.816406 80.15625 L 359.609375 84.308594 C 359.25 89.839844 358.695312 95.363281 357.867188 100.84375 C 357.660156 102.214844 357.476562 103.589844 357.253906 104.957031 L 356.542969 109.046875 L 355.109375 117.230469 C 351.0625 139.007812 346.089844 160.589844 340.808594 182.089844 C 339.46875 187.460938 338.144531 192.832031 336.78125 198.199219 L 332.566406 214.257812 C 331.183594 219.617188 329.691406 224.941406 328.238281 230.285156 L 326.046875 238.292969 L 324.953125 242.292969 L 323.824219 246.289062 L 319.277344 262.257812 L 318.136719 266.25 L 316.960938 270.230469 L 314.609375 278.1875 L 312.257812 286.148438 L 311.082031 290.132812 C 310.6875 291.457031 310.277344 292.777344 309.875 294.105469 L 305.035156 309.984375 C 303.429688 315.28125 301.730469 320.546875 300.066406 325.824219 L 296.304688 337.691406 C 295.882812 339.011719 295.464844 340.328125 295.027344 341.644531 L 289.867188 357.421875 C 289 360.050781 288.15625 362.6875 287.277344 365.308594 L 284.609375 373.167969 L 279.25 388.882812 L 273.734375 404.542969 L 270.96875 412.371094 L 268.117188 420.171875 L 265.25 427.960938 L 263.820312 431.859375 C 263.339844 433.15625 262.875 434.460938 262.371094 435.746094 L 256.4375 451.253906 C 255.4375 453.835938 254.492188 456.429688 253.394531 459 C 253.128906 459.644531 252.867188 460.289062 252.59375 460.929688 L 251.71875 462.832031 L 250.84375 464.730469 C 250.546875 465.363281 250.21875 465.976562 249.910156 466.601562 C 247.402344 471.582031 244.515625 476.382812 241.199219 480.875 C 237.890625 485.367188 234.15625 489.554688 230.007812 493.296875 C 225.855469 497.023438 221.273438 500.261719 216.421875 502.996094 L 215.96875 503.257812 L 215.503906 503.5 L 213.652344 504.46875 C 213.34375 504.628906 213.039062 504.792969 212.71875 504.933594 C 211.457031 505.519531 210.210938 506.144531 208.917969 506.664062 C 206.367188 507.78125 203.734375 508.679688 201.089844 509.527344 C 195.773438 511.132812 190.320312 512.292969 184.816406 512.953125 C 179.324219 513.648438 173.78125 513.875 168.25 513.820312 C 206.089844 522.378906 242.765625 525.304688 267.519531 525.304688 C 388.875 525.304688 375.988281 463.535156 415.324219 334.722656 C 440.433594 252.484375 458.886719 199.359375 447.21875 158.136719 " fill-opacity="1" fill-rule="nonzero"/></g></svg>