<svg xmlns="http://www.w3.org/2000/svg" xmlns:xlink="http://www.w3.org/1999/xlink" width="1728" zoomAndPan="magnify" viewBox="0 0 1296 863.999991" height="1152" preserveAspectRatio="xMidYMid meet" version="1.0"><defs><clipPath id="e9add4c420"><path d="M 447 65 L 792 65 L 792 551 L 447 551 Z M 447 65 " clip-rule="nonzero"/></clipPath><clipPath id="c053f307ea"><path d="M 570.328125 46.644531 L 811.175781 123.328125 L 668.886719 570.214844 L 428.035156 493.53125 Z M 570.328125 46.644531 " clip-rule="nonzero"/></clipPath><clipPath id="1f8a59d94c"><path d="M 641.792969 69.398438 L 739.710938 100.574219 C 779.179688 113.140625 800.988281 155.324219 788.421875 194.792969 L 691.875 498.011719 C 679.308594 537.480469 637.125 559.289062 597.65625 546.71875 L 499.738281 515.542969 C 460.269531 502.976562 438.460938 460.792969 451.027344 421.324219 L 547.570312 118.109375 C 560.140625 78.636719 602.324219 56.832031 641.792969 69.398438 Z M 641.792969 69.398438 " clip-rule="nonzero"/></clipPath><clipPath id="972ba61e04"><path d="M 444 105 L 870 105 L 870 578 L 444 578 Z M 444 105 " clip-rule="nonzero"/></clipPath><clipPath id="353e65420c"><path d="M 536.582031 87.414062 L 886.261719 180.054688 L 776.320312 595.042969 L 426.640625 502.402344 Z M 536.582031 87.414062 " clip-rule="nonzero"/></clipPath><clipPath id="40b52ce19c"><path d="M 610.082031 108.34375 L 813.402344 162.207031 C 853.441406 172.816406 877.304688 213.875 866.695312 253.914062 L 795.800781 521.519531 C 785.191406 561.558594 744.132812 585.417969 704.09375 574.808594 L 500.773438 520.945312 C 460.730469 510.335938 436.871094 469.277344 447.480469 429.238281 L 518.375 161.632812 C 528.984375 121.59375 570.042969 97.734375 610.082031 108.34375 Z M 610.082031 108.34375 " clip-rule="nonzero"/></clipPath><clipPath id="0a2078e05a"><path d="M 494 432 L 696 432 L 696 574 L 494 574 Z M 494 432 " clip-rule="nonzero"/></clipPath><clipPath id="7d70e74e38"><path d="M 511.527344 419.320312 L 709.285156 471.710938 L 678.730469 587.03125 L 480.976562 534.636719 Z M 511.527344 419.320312 " clip-rule="nonzero"/></clipPath><clipPath id="338330248c"><path d="M 569.1875 434.59375 L 651.46875 456.394531 C 666.761719 460.445312 679.816406 470.40625 687.765625 484.082031 C 695.714844 497.761719 697.902344 514.035156 693.851562 529.328125 C 689.800781 544.621094 679.839844 557.675781 666.160156 565.625 C 652.484375 573.574219 636.207031 575.765625 620.917969 571.710938 L 538.636719 549.914062 C 523.34375 545.863281 510.289062 535.902344 502.339844 522.222656 C 494.390625 508.546875 492.203125 492.269531 496.253906 476.980469 C 500.304688 461.6875 510.265625 448.628906 523.941406 440.679688 C 537.621094 432.734375 553.894531 430.542969 569.1875 434.59375 Z M 569.1875 434.59375 " clip-rule="nonzero"/></clipPath><clipPath id="e6339c610f"><path d="M 538 717 L 708 717 L 708 817.09375 L 538 817.09375 Z M 538 717 " clip-rule="nonzero"/></clipPath><clipPath id="4049ee47c1"><path d="M 591.488281 107.367188 L 874.800781 107.367188 L 874.800781 582.839844 L 591.488281 582.839844 Z M 591.488281 107.367188 " clip-rule="nonzero"/></clipPath></defs><rect x="-129.6" width="1555.2" fill="#ffffff" y="-86.399999" height="1036.79999" fill-opacity="1"/><rect x="-129.6" width="1555.2" fill="#ffffff" y="-86.399999" height="1036.79999" fill-opacity="1"/><g clip-path="url(#e9add4c420)"><g clip-path="url(#c053f307ea)"><g clip-path="url(#1f8a59d94c)"><path fill="#ffffff" d="M 570.328125 46.644531 L 811.175781 123.328125 L 669.183594 569.277344 L 428.335938 492.589844 Z M 570.328125 46.644531 " fill-opacity="1" fill-rule="nonzero"/></g></g></g><g clip-path="url(#972ba61e04)"><g clip-path="url(#353e65420c)"><g clip-path="url(#40b52ce19c)"><path fill="#ffffff" d="M 537.582031 89.136719 L 885.902344 181.414062 L 776.679688 593.683594 L 428.363281 501.402344 Z M 537.582031 89.136719 " fill-opacity="1" fill-rule="nonzero"/></g></g></g><g clip-path="url(#0a2078e05a)"><g clip-path="url(#7d70e74e38)"><g clip-path="url(#338330248c)"><path fill="#ffffff" d="M 511.527344 419.320312 L 709.285156 471.710938 L 678.730469 587.03125 L 480.976562 534.636719 Z M 511.527344 419.320312 " fill-opacity="1" fill-rule="nonzero"/></g></g></g><path fill="#121213" d="M 540.550781 657.625 C 541.265625 662.6875 542.65625 667.699219 544.125 672.667969 C 541.984375 667.933594 540.226562 663.023438 538.996094 657.910156 C 538.6875 656.628906 538.460938 655.320312 538.28125 653.988281 C 538.136719 652.644531 538.171875 651.269531 538.257812 649.917969 C 538.503906 647.25 538.984375 644.660156 539.542969 642.097656 C 540.707031 636.980469 542.136719 631.96875 543.734375 627.007812 C 545.347656 622.050781 546.988281 617.128906 548.867188 612.25 L 549.425781 610.785156 L 550.988281 611.089844 L 564.507812 613.753906 L 577.996094 616.546875 L 580.179688 616.996094 L 579.375 619.078125 C 577.511719 623.894531 575.683594 628.804688 574.085938 633.742188 C 572.496094 638.695312 570.957031 643.660156 569.84375 648.714844 C 568.664062 653.730469 568.191406 658.882812 568.175781 664.054688 C 568.269531 669.226562 568.945312 674.441406 570.613281 679.417969 C 568.273438 674.691406 567.1875 669.414062 566.585938 664.148438 C 566.0625 658.851562 566.316406 653.464844 567.183594 648.195312 C 568.113281 642.964844 569.34375 637.808594 570.847656 632.738281 C 572.152344 628.390625 573.519531 624.078125 575.097656 619.804688 L 563.734375 617.566406 L 551.796875 615.09375 C 550.132812 619.398438 548.464844 623.726562 546.933594 628.089844 C 545.242188 632.949219 543.511719 637.8125 542.160156 642.75 C 541.480469 645.214844 540.828125 647.691406 540.441406 650.167969 C 540.054688 652.59375 540.199219 655.082031 540.550781 657.625 Z M 547.496094 714.214844 L 577.882812 721.492188 L 577.558594 700.628906 L 602.554688 705.128906 C 566.453125 676.304688 612.679688 578.390625 612.679688 578.390625 L 545.15625 562.03125 C 545.15625 562.03125 527.292969 621.585938 520.929688 643.925781 C 512.957031 671.886719 547.238281 694.742188 547.238281 694.742188 L 547.496094 714.214844 " fill-opacity="1" fill-rule="nonzero"/><path fill="#121213" d="M 677.089844 660.046875 C 676.988281 658.148438 676.863281 656.257812 676.558594 654.394531 C 676.445312 653.457031 676.246094 652.53125 676.082031 651.601562 C 675.988281 651.140625 675.871094 650.683594 675.765625 650.226562 C 675.660156 649.765625 675.558594 649.304688 675.425781 648.855469 L 675.046875 647.496094 C 674.910156 647.046875 674.757812 646.597656 674.617188 646.152344 L 674.402344 645.480469 C 674.328125 645.257812 674.242188 645.039062 674.160156 644.820312 L 673.667969 643.5 L 673.121094 642.207031 C 673.03125 641.988281 672.941406 641.773438 672.84375 641.558594 L 672.542969 640.925781 C 672.335938 640.503906 672.148438 640.078125 671.933594 639.660156 L 671.273438 638.425781 C 670.363281 636.789062 669.398438 635.191406 668.285156 633.695312 L 667.882812 633.125 L 667.449219 632.578125 C 667.15625 632.214844 666.878906 631.839844 666.582031 631.488281 L 665.664062 630.433594 C 665.515625 630.253906 665.359375 630.085938 665.199219 629.917969 L 664.714844 629.414062 C 664.394531 629.074219 664.082031 628.734375 663.734375 628.425781 L 662.730469 627.460938 C 662.035156 626.855469 661.347656 626.230469 660.609375 625.671875 C 659.898438 625.085938 659.125 624.570312 658.378906 624.035156 C 657.597656 623.539062 656.832031 623.023438 656.015625 622.589844 C 655.617188 622.359375 655.21875 622.128906 654.800781 621.933594 C 654.390625 621.730469 653.984375 621.515625 653.566406 621.320312 L 652.300781 620.773438 L 651.988281 620.632812 L 651.664062 620.515625 L 651.015625 620.277344 L 650.371094 620.03125 C 650.15625 619.957031 649.9375 619.894531 649.71875 619.824219 C 649.28125 619.691406 648.847656 619.539062 648.402344 619.417969 L 647.074219 619.078125 C 646.851562 619.019531 646.625 618.972656 646.402344 618.933594 L 645.726562 618.800781 L 645.054688 618.671875 L 644.371094 618.574219 C 643.917969 618.515625 643.46875 618.441406 643.011719 618.398438 L 641.644531 618.289062 C 641.417969 618.269531 641.1875 618.265625 640.960938 618.261719 L 640.273438 618.246094 L 639.589844 618.230469 C 639.359375 618.226562 639.132812 618.246094 638.902344 618.25 C 638.449219 618.273438 637.988281 618.28125 637.535156 618.304688 C 636.625 618.398438 635.710938 618.460938 634.8125 618.625 C 634.363281 618.691406 633.910156 618.753906 633.464844 618.859375 L 632.128906 619.140625 C 631.246094 619.382812 630.359375 619.597656 629.496094 619.902344 L 628.84375 620.113281 C 628.628906 620.183594 628.421875 620.277344 628.207031 620.355469 C 627.78125 620.523438 627.355469 620.683594 626.933594 620.859375 L 625.6875 621.429688 C 625.476562 621.515625 625.269531 621.621094 625.066406 621.726562 L 624.464844 622.046875 L 623.855469 622.359375 C 623.652344 622.46875 623.457031 622.59375 623.261719 622.707031 C 622.871094 622.941406 622.46875 623.164062 622.085938 623.410156 L 620.941406 624.167969 C 620.554688 624.414062 620.199219 624.707031 619.828125 624.96875 L 619.273438 625.378906 L 618.738281 625.8125 C 618.390625 626.105469 618.023438 626.386719 617.683594 626.6875 L 616.664062 627.609375 C 616.320312 627.910156 616.007812 628.257812 615.675781 628.570312 L 615.1875 629.054688 C 615.027344 629.21875 614.875 629.390625 614.71875 629.558594 C 614.410156 629.894531 614.09375 630.226562 613.789062 630.570312 C 613.203125 631.277344 612.597656 631.972656 612.054688 632.714844 C 611.484375 633.433594 610.976562 634.207031 610.453125 634.957031 L 609.71875 636.128906 C 609.597656 636.324219 609.46875 636.511719 609.351562 636.714844 L 609.015625 637.316406 C 608.085938 638.90625 607.300781 640.582031 606.585938 642.277344 L 606.074219 643.558594 C 605.90625 643.992188 605.769531 644.433594 605.613281 644.867188 C 605.292969 645.734375 605.050781 646.625 604.773438 647.507812 C 602.78125 654.621094 602.480469 662.21875 603.828125 669.515625 C 604.511719 673.167969 605.628906 676.738281 607.167969 680.128906 C 608.679688 683.53125 610.664062 686.71875 613.015625 689.625 C 615.367188 692.527344 618.140625 695.089844 621.226562 697.230469 C 622.777344 698.289062 624.417969 699.226562 626.117188 700.03125 C 627.820312 700.851562 629.59375 701.53125 631.414062 702.058594 C 629.558594 701.652344 627.738281 701.097656 625.964844 700.390625 C 624.195312 699.679688 622.484375 698.816406 620.839844 697.832031 C 619.203125 696.835938 617.652344 695.699219 616.179688 694.464844 C 614.714844 693.222656 613.324219 691.886719 612.050781 690.441406 C 609.507812 687.550781 607.339844 684.320312 605.632812 680.855469 C 604.773438 679.125 604.019531 677.335938 603.402344 675.503906 C 602.785156 673.671875 602.242188 671.8125 601.847656 669.914062 C 601.453125 668.023438 601.144531 666.105469 600.964844 664.175781 C 600.910156 663.695312 600.890625 663.214844 600.855469 662.730469 L 600.808594 662.003906 L 600.789062 661.277344 C 600.78125 660.792969 600.753906 660.308594 600.757812 659.824219 L 600.78125 658.367188 C 600.78125 657.886719 600.808594 657.402344 600.839844 656.914062 C 600.867188 656.429688 600.894531 655.949219 600.925781 655.464844 L 601.078125 654.015625 L 601.152344 653.292969 L 601.257812 652.570312 L 601.476562 651.128906 L 601.75 649.699219 L 601.894531 648.984375 L 602.0625 648.273438 C 602.179688 647.804688 602.289062 647.328125 602.40625 646.859375 C 604.425781 639.351562 608.320312 632.292969 613.84375 626.734375 L 614.367188 626.21875 C 614.542969 626.046875 614.714844 625.875 614.898438 625.714844 L 615.996094 624.734375 C 616.359375 624.410156 616.753906 624.113281 617.128906 623.800781 L 617.703125 623.339844 L 618.296875 622.90625 C 618.699219 622.625 619.078125 622.320312 619.496094 622.054688 L 620.726562 621.246094 C 621.140625 620.988281 621.570312 620.75 621.992188 620.5 C 622.207031 620.378906 622.417969 620.25 622.628906 620.132812 L 623.941406 619.460938 C 624.160156 619.34375 624.378906 619.238281 624.605469 619.136719 L 625.949219 618.539062 C 626.402344 618.347656 626.867188 618.179688 627.324219 618.003906 C 627.554688 617.914062 627.777344 617.820312 628.015625 617.746094 L 628.714844 617.519531 C 629.644531 617.195312 630.601562 616.964844 631.550781 616.71875 C 632.519531 616.519531 633.476562 616.300781 634.457031 616.191406 C 635.425781 616.03125 636.410156 615.976562 637.386719 615.898438 C 637.875 615.878906 638.367188 615.875 638.859375 615.859375 C 639.105469 615.859375 639.351562 615.847656 639.59375 615.851562 L 640.328125 615.882812 L 641.070312 615.90625 C 641.3125 615.914062 641.558594 615.921875 641.800781 615.953125 L 643.265625 616.089844 C 643.753906 616.140625 644.238281 616.230469 644.726562 616.300781 L 645.449219 616.417969 L 646.171875 616.570312 L 646.890625 616.722656 C 647.128906 616.773438 647.367188 616.824219 647.605469 616.890625 L 649.019531 617.277344 C 649.496094 617.414062 649.953125 617.582031 650.417969 617.734375 C 650.648438 617.808594 650.886719 617.882812 651.113281 617.96875 L 651.792969 618.238281 L 652.472656 618.515625 L 652.8125 618.652344 L 654.472656 619.429688 C 654.910156 619.648438 655.339844 619.882812 655.773438 620.109375 C 656.207031 620.332031 656.621094 620.585938 657.039062 620.839844 C 657.886719 621.324219 658.679688 621.886719 659.488281 622.429688 C 660.265625 623.015625 661.058594 623.578125 661.789062 624.21875 C 662.550781 624.824219 663.253906 625.496094 663.960938 626.15625 C 664.308594 626.492188 664.648438 626.839844 664.984375 627.1875 C 665.328125 627.53125 665.648438 627.894531 665.96875 628.261719 L 666.449219 628.804688 C 666.609375 628.984375 666.769531 629.164062 666.917969 629.359375 L 667.824219 630.488281 C 668.121094 630.867188 668.394531 631.265625 668.6875 631.652344 L 669.109375 632.234375 L 669.507812 632.839844 C 670.601562 634.433594 671.542969 636.117188 672.40625 637.835938 C 675.820312 644.742188 677.351562 652.46875 677.089844 660.046875 Z M 651.636719 685.652344 C 651.636719 685.652344 632.382812 695.183594 623.433594 675.523438 C 615.277344 657.605469 622.8125 641.761719 633.71875 638.773438 Z M 656.453125 683.3125 L 638.914062 635.785156 C 638.914062 635.785156 658.320312 628.980469 665.664062 649.292969 C 673.453125 670.847656 656.453125 683.3125 656.453125 683.3125 Z M 662.546875 585.925781 C 638.191406 584.144531 615.820312 579.691406 615.820312 579.691406 C 615.820312 579.691406 602.105469 610.761719 595.023438 641.761719 C 588.476562 670.40625 591.015625 699.414062 611.640625 707.988281 C 611.652344 707.992188 611.660156 707.996094 611.667969 707.996094 C 594.753906 707.132812 579.699219 703.054688 579.699219 703.054688 L 580.21875 722.1875 L 685.503906 726.777344 L 669.191406 680.960938 C 699.253906 643.992188 721.082031 585.402344 721.082031 585.402344 C 721.082031 585.402344 688.746094 587.839844 662.546875 585.925781 " fill-opacity="1" fill-rule="nonzero"/><g clip-path="url(#e6339c610f)"><path fill="#121213" d="M 577.882812 727.769531 L 538.496094 717.808594 L 542.511719 817.273438 L 707.667969 817.351562 L 690.074219 730.320312 L 577.882812 727.769531 " fill-opacity="1" fill-rule="nonzero"/></g><path fill="#121213" d="M 588.980469 554.519531 C 588.980469 554.519531 550.253906 533.023438 540.675781 524.910156 C 506.671875 496.101562 505.46875 483.109375 506.671875 446.492188 C 506.804688 442.441406 511.804688 436.910156 515.761719 437.773438 C 520.957031 438.90625 524.957031 443.027344 523.929688 457.109375 C 521.613281 488.683594 533.203125 505.863281 545.742188 518.679688 C 563.269531 536.601562 598.714844 554.519531 598.714844 554.519531 Z M 569.820312 556.464844 C 569.820312 556.464844 522.207031 526.792969 512.628906 518.679688 C 478.621094 489.871094 476.335938 472.460938 479.140625 440.261719 C 479.496094 436.222656 483.757812 430.679688 487.71875 431.539062 C 492.910156 432.675781 493.726562 435.648438 492.699219 449.730469 C 490.382812 481.304688 497.824219 497.199219 515.03125 514.785156 C 532.5625 532.703125 572.339844 555.796875 572.339844 555.796875 Z M 550.898438 554.558594 C 550.898438 554.558594 503.289062 524.890625 493.710938 516.777344 C 459.703125 487.964844 457.355469 471.246094 460.160156 439.046875 C 460.515625 435.007812 463.53125 427.257812 467.765625 429.515625 C 469.84375 430.621094 469.835938 436.96875 468.804688 451.050781 C 466.488281 482.625 478.90625 495.292969 496.113281 512.878906 C 513.640625 530.796875 553.421875 553.890625 553.421875 553.890625 Z M 461.015625 381.882812 C 463.242188 379.65625 477.59375 378.074219 501.371094 380.265625 C 499.605469 387.730469 498.078125 394.367188 496.804688 400.007812 C 471.03125 396.761719 457.125 397.453125 457.125 397.453125 C 462.964844 389.667969 458.511719 384.390625 461.015625 381.882812 Z M 448.910156 439.046875 C 449.261719 435.007812 449.933594 431.453125 452.53125 432.351562 C 453.835938 432.804688 452.792969 439.582031 451.835938 453.667969 C 450.6875 470.640625 456.164062 483.945312 456.164062 483.945312 C 456.164062 483.945312 446.101562 471.246094 448.910156 439.046875 Z M 470.746094 346.855469 C 472.941406 344.664062 486.867188 343.089844 509.988281 345.132812 C 508.238281 352.023438 506.601562 358.601562 505.089844 364.804688 C 480.246094 361.761719 466.855469 362.425781 466.855469 362.425781 C 472.691406 354.636719 468.242188 349.359375 470.746094 346.855469 Z M 482.421875 311.828125 C 484.539062 309.714844 497.589844 308.179688 519.265625 309.90625 C 517.445312 316.578125 515.695312 323.109375 514.035156 329.445312 C 490.9375 326.777344 478.527344 327.394531 478.527344 327.394531 C 484.371094 319.609375 479.917969 314.332031 482.421875 311.828125 Z M 494.097656 276.800781 C 496.15625 274.738281 508.570312 273.226562 529.230469 274.742188 C 527.300781 281.296875 525.433594 287.789062 523.625 294.1875 C 501.878906 291.792969 490.207031 292.367188 490.207031 292.367188 C 496.042969 284.582031 491.59375 279.304688 494.097656 276.800781 Z M 503.828125 243.714844 C 505.902344 241.644531 518.464844 240.125 539.371094 241.691406 C 537.300781 248.164062 535.28125 254.644531 533.316406 261.101562 C 511.59375 258.707031 499.9375 259.285156 499.9375 259.285156 C 505.773438 251.503906 501.324219 246.21875 503.828125 243.714844 Z M 513.558594 206.742188 C 515.71875 204.582031 529.273438 203.027344 551.773438 204.933594 C 549.484375 211.34375 547.246094 217.828125 545.054688 224.347656 C 522.027344 221.691406 509.667969 222.3125 509.667969 222.3125 C 515.503906 214.523438 511.054688 209.246094 513.558594 206.742188 Z M 523.289062 171.714844 C 525.558594 169.449219 540.40625 167.847656 564.992188 170.226562 C 562.410156 176.550781 559.878906 183.035156 557.390625 189.632812 C 532.703125 186.625 519.398438 187.28125 519.398438 187.28125 C 525.234375 179.5 520.785156 174.21875 523.289062 171.714844 Z M 538.859375 136.683594 C 541.203125 134.339844 555.566406 132.710938 580.527344 135.449219 C 577.488281 141.597656 574.492188 148.042969 571.550781 154.734375 C 547.277344 151.574219 534.96875 152.253906 534.96875 152.253906 C 540.804688 144.472656 536.355469 139.1875 538.859375 136.683594 Z M 561.964844 104.871094 C 571.546875 89.75 582.945312 88.5625 582.945312 88.5625 C 582.945312 88.5625 574.675781 94.945312 569.289062 104.28125 C 566.675781 108.816406 561.078125 122.359375 556.578125 119.6875 C 553.191406 117.675781 559.855469 108.199219 561.964844 104.871094 Z M 612.597656 80.359375 C 612.597656 80.359375 602.359375 88.265625 595.691406 99.820312 C 592.457031 105.429688 585.53125 122.191406 579.957031 118.886719 C 575.765625 116.394531 584.015625 104.664062 586.628906 100.546875 C 598.484375 81.835938 612.597656 80.359375 612.597656 80.359375 Z M 651.03125 80.359375 C 651.03125 80.359375 636.832031 90.316406 629.910156 100.789062 C 625.640625 107.25 615.316406 123.558594 606.148438 120.308594 C 601.996094 118.839844 612.683594 103.964844 615.886719 99.058594 C 628.089844 80.359375 651.03125 80.359375 651.03125 80.359375 Z M 661.246094 93.777344 C 687.214844 84.691406 703.0625 95.074219 703.0625 95.074219 C 703.0625 95.074219 691.632812 96.894531 685.402344 100.546875 C 680.339844 103.511719 673.796875 105.390625 666.703125 114.558594 C 660.464844 122.609375 644.914062 128.40625 641.355469 121.828125 C 637.371094 114.46875 652.75 96.753906 661.246094 93.777344 Z M 746.101562 184.261719 C 749.015625 186.007812 752.632812 192.0625 750.820312 196.589844 C 748.21875 203.078125 745.363281 206.722656 734.71875 201.789062 C 709.730469 190.207031 665.664062 175.285156 638.363281 168.160156 C 615.746094 162.253906 596.804688 158.523438 581.546875 156.164062 C 584.5625 149.40625 587.632812 142.902344 590.746094 136.738281 C 605.4375 138.828125 623.046875 142.273438 643.40625 147.640625 C 673.890625 155.679688 730.515625 174.910156 746.101562 184.261719 Z M 739.140625 231.621094 C 736.546875 238.105469 733.6875 241.75 723.039062 236.816406 C 698.054688 225.234375 653.988281 210.3125 626.691406 203.1875 C 603.308594 197.082031 583.382812 193.296875 567.269531 190.949219 C 569.8125 184.273438 572.398438 177.726562 575.035156 171.351562 C 590.898438 173.386719 609.976562 176.933594 631.726562 182.667969 C 662.214844 190.707031 718.839844 209.941406 734.421875 219.289062 C 737.339844 221.042969 740.957031 227.09375 739.140625 231.621094 Z M 729.414062 266.648438 C 726.816406 273.132812 723.960938 276.777344 713.308594 271.839844 C 688.324219 260.265625 644.257812 245.34375 616.957031 238.214844 C 592.265625 231.769531 571.4375 227.910156 554.875 225.605469 C 557.109375 218.992188 559.394531 212.425781 561.730469 205.949219 C 578.269531 207.890625 598.585938 211.523438 622 217.695312 C 652.480469 225.734375 709.109375 244.96875 724.691406 254.316406 C 727.613281 256.066406 731.226562 262.117188 729.414062 266.648438 Z M 719.683594 303.621094 C 717.085938 310.109375 714.226562 313.753906 703.578125 308.820312 C 678.597656 297.238281 634.527344 282.316406 607.230469 275.191406 C 581.523438 268.480469 559.976562 264.566406 543.101562 262.292969 C 545.101562 255.746094 547.160156 249.175781 549.269531 242.613281 C 566.289062 244.46875 587.546875 248.152344 612.269531 254.671875 C 642.753906 262.710938 699.382812 281.941406 714.964844 291.292969 C 717.878906 293.042969 721.496094 299.09375 719.683594 303.621094 Z M 709.949219 336.703125 C 707.351562 343.191406 704.5 346.835938 693.847656 341.898438 C 668.867188 330.320312 624.800781 315.398438 597.5 308.273438 C 571.792969 301.5625 550.257812 297.648438 533.382812 295.375 C 535.21875 288.878906 537.121094 282.292969 539.089844 275.648438 C 556.179688 277.484375 577.597656 281.175781 602.535156 287.753906 C 633.023438 295.792969 689.648438 315.023438 705.230469 324.375 C 708.152344 326.121094 711.765625 332.175781 709.949219 336.703125 Z M 698.277344 371.730469 C 695.679688 378.214844 692.824219 381.863281 682.175781 376.925781 C 657.1875 365.347656 613.121094 350.421875 585.820312 343.296875 C 561.136719 336.855469 540.320312 332.996094 523.761719 330.695312 C 525.449219 324.253906 527.222656 317.628906 529.074219 310.851562 C 545.882812 312.75 566.730469 316.421875 590.863281 322.78125 C 621.347656 330.820312 677.972656 350.054688 693.558594 359.402344 C 696.472656 361.152344 700.085938 367.203125 698.277344 371.730469 Z M 686.597656 406.761719 C 684.003906 413.25 681.144531 416.886719 670.496094 411.953125 C 645.515625 400.378906 601.445312 385.457031 574.148438 378.324219 C 550.796875 372.230469 530.886719 368.445312 514.785156 366.101562 C 516.324219 359.8125 517.980469 353.140625 519.757812 346.164062 C 536.148438 348.128906 556.167969 351.738281 579.183594 357.8125 C 609.671875 365.847656 666.296875 385.082031 681.878906 394.433594 C 684.796875 396.179688 688.414062 402.230469 686.597656 406.761719 Z M 676.867188 441.789062 C 674.269531 448.273438 671.417969 451.921875 660.769531 446.984375 C 635.785156 435.40625 591.714844 420.480469 564.414062 413.355469 C 541.742188 407.433594 522.328125 403.703125 506.476562 401.34375 C 507.777344 395.605469 509.324219 388.886719 511.117188 381.320312 C 527.300781 383.3125 546.941406 386.902344 569.457031 392.839844 C 599.941406 400.878906 656.566406 420.109375 672.152344 429.457031 C 675.070312 431.207031 678.683594 437.257812 676.867188 441.789062 Z M 612.167969 551.402344 C 612.167969 551.402344 584 533.378906 573.785156 526.078125 C 549.246094 508.550781 537.527344 487.125 538.726562 450.507812 C 538.863281 446.457031 544.203125 441.625 550.804688 443.109375 C 557.347656 444.578125 560.0625 451.675781 560.453125 459.46875 C 561.347656 477.402344 562.296875 495.648438 578.425781 513.25 C 595.359375 531.730469 619.960938 548.117188 619.960938 548.117188 Z M 624.480469 565.957031 C 625.136719 565.738281 625.78125 565.5 626.429688 565.265625 L 627.40625 564.921875 C 627.730469 564.808594 628.046875 564.671875 628.367188 564.550781 L 630.285156 563.785156 C 630.925781 563.523438 631.546875 563.234375 632.183594 562.960938 C 633.453125 562.421875 634.667969 561.789062 635.910156 561.183594 C 636.21875 561.035156 636.523438 560.871094 636.820312 560.707031 L 637.730469 560.210938 L 638.632812 559.71875 L 639.085938 559.472656 L 639.527344 559.203125 C 644.265625 556.417969 648.722656 553.148438 652.742188 549.414062 C 656.765625 545.667969 660.382812 541.507812 663.574219 537.046875 C 666.769531 532.578125 669.542969 527.824219 671.941406 522.882812 C 672.242188 522.261719 672.554688 521.648438 672.839844 521.027344 L 673.675781 519.140625 L 674.515625 517.257812 C 674.777344 516.625 675.027344 515.984375 675.28125 515.347656 C 676.328125 512.816406 677.261719 510.195312 678.234375 507.605469 L 684.015625 492.035156 C 684.507812 490.738281 684.957031 489.429688 685.421875 488.125 L 689.609375 476.390625 L 692.40625 468.570312 L 695.125 460.722656 L 700.550781 445.019531 L 705.8125 429.261719 L 708.449219 421.386719 C 709.324219 418.761719 710.164062 416.121094 711.027344 413.488281 L 716.160156 397.691406 C 716.59375 396.378906 717.015625 395.058594 717.425781 393.734375 L 721.164062 381.851562 C 722.824219 376.570312 724.511719 371.292969 726.109375 365.988281 L 730.988281 350.109375 C 731.394531 348.785156 731.808594 347.464844 732.203125 346.136719 L 733.386719 342.15625 L 738.125 326.230469 L 739.304688 322.253906 L 740.457031 318.261719 L 745.066406 302.300781 C 751.121094 280.992188 757.035156 259.640625 762.519531 238.1875 L 763.5625 234.164062 C 763.914062 232.824219 764.261719 231.488281 764.585938 230.140625 L 766.578125 222.078125 C 767.898438 216.699219 769.253906 211.332031 770.480469 205.933594 L 772.367188 197.847656 L 773.3125 193.804688 C 773.628906 192.453125 773.902344 191.097656 774.199219 189.746094 L 775.9375 181.625 C 776.511719 178.917969 777.128906 176.21875 777.628906 173.5 L 779.199219 165.347656 L 779.992188 161.269531 C 780.234375 159.910156 780.441406 158.542969 780.671875 157.183594 C 781.59375 151.726562 782.234375 146.234375 782.71875 140.730469 L 783.015625 136.597656 L 783.179688 132.449219 C 783.21875 131.761719 783.210938 131.070312 783.21875 130.378906 L 783.226562 128.304688 C 783.226562 127.960938 783.234375 127.613281 783.226562 127.269531 L 783.195312 126.230469 L 783.136719 124.160156 C 783.128906 123.46875 783.070312 122.78125 783.03125 122.089844 L 782.898438 120.019531 L 782.691406 117.957031 C 782.65625 117.613281 782.628906 117.265625 782.582031 116.921875 L 782.441406 115.898438 C 782.34375 115.210938 782.257812 114.523438 782.128906 113.847656 C 782.003906 113.164062 781.898438 112.480469 781.738281 111.808594 L 781.519531 110.792969 L 781.257812 109.789062 C 781.085938 109.121094 780.886719 108.457031 780.640625 107.808594 C 765.53125 99.113281 749.9375 92.167969 734.898438 86.945312 C 649.386719 57.242188 581.394531 56.554688 544.773438 107.203125 C 517.328125 145.164062 498.824219 209.007812 477.765625 281.746094 C 455.050781 360.167969 423.304688 442.847656 452.828125 490.570312 C 480.027344 534.539062 537.144531 558.640625 591.828125 571.007812 C 597.367188 570.914062 602.902344 570.546875 608.363281 569.71875 C 613.839844 568.929688 619.238281 567.667969 624.480469 565.957031 " fill-opacity="1" fill-rule="nonzero"/><g clip-path="url(#4049ee47c1)"><path fill="#121213" d="M 860.269531 267.003906 C 859.394531 268.191406 859.054688 270.464844 859.054688 270.464844 C 859.054688 270.464844 814.261719 241.09375 795.34375 230.992188 C 790.800781 228.566406 788.414062 221.46875 791.542969 216.007812 C 795.292969 209.441406 800.636719 211.765625 803.226562 213.28125 C 819.285156 222.652344 860.09375 244.667969 863.992188 256.128906 C 864.953125 258.933594 863.210938 263.019531 860.269531 267.003906 Z M 851.4375 301.546875 C 850.5625 302.734375 850.226562 305.007812 850.226562 305.007812 C 850.226562 305.007812 805.429688 275.636719 786.511719 265.53125 C 781.972656 263.109375 779.585938 256.011719 782.714844 250.546875 C 786.464844 243.980469 791.804688 246.308594 794.394531 247.820312 C 810.449219 257.191406 851.265625 279.210938 855.164062 290.671875 C 856.121094 293.472656 854.382812 297.5625 851.4375 301.546875 Z M 842.101562 335.742188 C 841.234375 336.933594 840.925781 339.214844 840.925781 339.214844 C 840.925781 339.214844 795.824219 310.308594 776.800781 300.40625 C 772.238281 298.027344 769.773438 290.957031 772.84375 285.464844 C 776.527344 278.859375 781.894531 281.128906 784.5 282.613281 C 800.652344 291.816406 841.695312 313.40625 845.710938 324.828125 C 846.695312 327.617188 845 331.726562 842.101562 335.742188 Z M 833.503906 369.628906 C 832.660156 370.839844 832.394531 373.125 832.394531 373.125 C 832.394531 373.125 786.738281 345.105469 767.527344 335.570312 C 762.917969 333.285156 760.320312 326.257812 763.277344 320.707031 C 766.835938 314.03125 772.246094 316.199219 774.878906 317.628906 C 791.207031 326.519531 832.660156 347.308594 836.902344 358.648438 C 837.9375 361.421875 836.328125 365.558594 833.503906 369.628906 Z M 823.230469 402.503906 C 822.417969 403.738281 822.210938 406.03125 822.210938 406.03125 C 822.210938 406.03125 775.847656 379.199219 756.394531 370.167969 C 751.726562 368 748.949219 361.046875 751.765625 355.417969 C 755.148438 348.65625 760.609375 350.679688 763.277344 352.046875 C 779.835938 360.503906 821.808594 380.214844 826.34375 391.441406 C 827.453125 394.1875 825.945312 398.363281 823.230469 402.503906 Z M 813.742188 434.339844 C 812.933594 435.503906 812.722656 437.660156 812.722656 437.660156 C 812.722656 437.660156 766.757812 412.539062 747.464844 404.09375 C 742.835938 402.066406 740.101562 395.523438 742.910156 390.222656 C 746.289062 383.84375 751.707031 385.734375 754.359375 387.011719 C 770.765625 394.929688 812.402344 413.359375 816.867188 423.914062 C 817.960938 426.492188 816.457031 430.429688 813.742188 434.339844 Z M 803.097656 469.140625 C 802.285156 470.304688 802.078125 472.460938 802.078125 472.460938 C 802.078125 472.460938 756.109375 447.335938 736.816406 438.894531 C 732.191406 436.867188 729.453125 430.332031 732.261719 425.023438 C 735.640625 418.644531 741.058594 420.535156 743.710938 421.8125 C 760.121094 429.730469 801.753906 448.160156 806.21875 458.714844 C 807.3125 461.296875 805.808594 465.238281 803.097656 469.140625 Z M 795.335938 503.074219 C 794.535156 504.230469 794.367188 506.351562 794.367188 506.351562 C 794.367188 506.351562 746.941406 482.9375 727.085938 475.164062 C 722.320312 473.300781 719.390625 466.964844 722.148438 461.691406 C 725.464844 455.355469 731.03125 457.0625 733.761719 458.246094 C 750.671875 465.574219 793.53125 482.550781 798.308594 492.773438 C 799.476562 495.273438 798.015625 499.171875 795.335938 503.074219 Z M 871.257812 214.734375 C 857.582031 166.417969 820.832031 130.933594 780.640625 107.808594 C 780.902344 108.449219 781.121094 109.105469 781.3125 109.773438 L 781.601562 110.769531 L 781.84375 111.785156 C 782.019531 112.457031 782.140625 113.136719 782.285156 113.816406 C 782.4375 114.492188 782.535156 115.183594 782.648438 115.863281 L 782.816406 116.894531 C 782.878906 117.234375 782.910156 117.578125 782.957031 117.921875 L 783.21875 119.988281 L 783.402344 122.0625 C 783.460938 122.753906 783.542969 123.445312 783.566406 124.136719 L 783.671875 126.21875 L 783.726562 127.253906 C 783.738281 127.605469 783.738281 127.949219 783.746094 128.296875 L 783.78125 130.378906 C 783.792969 131.070312 783.808594 131.769531 783.789062 132.460938 L 783.714844 136.625 L 783.503906 140.785156 C 783.144531 146.324219 782.585938 151.859375 781.757812 157.347656 C 781.554688 158.71875 781.367188 160.097656 781.144531 161.46875 L 780.429688 165.566406 L 779 173.757812 C 774.945312 195.574219 769.964844 217.191406 764.671875 238.726562 C 763.328125 244.105469 762.003906 249.488281 760.640625 254.863281 L 756.417969 270.949219 C 755.03125 276.316406 753.539062 281.652344 752.078125 287 L 749.886719 295.023438 L 748.789062 299.03125 L 747.660156 303.03125 L 743.105469 319.03125 L 741.960938 323.027344 L 740.785156 327.015625 L 738.433594 334.984375 L 736.074219 342.960938 L 734.898438 346.949219 C 734.503906 348.277344 734.089844 349.601562 733.6875 350.929688 L 728.839844 366.832031 C 727.234375 372.140625 725.53125 377.414062 723.863281 382.699219 L 720.09375 394.585938 C 719.671875 395.910156 719.253906 397.230469 718.816406 398.546875 L 713.648438 414.351562 C 712.777344 416.984375 711.933594 419.625 711.050781 422.25 L 708.378906 430.125 L 703.011719 445.867188 L 697.488281 461.550781 L 694.71875 469.394531 L 691.859375 477.203125 L 688.988281 485.007812 L 687.558594 488.910156 C 687.074219 490.210938 686.613281 491.515625 686.101562 492.808594 L 680.160156 508.335938 C 679.160156 510.925781 678.210938 513.523438 677.113281 516.097656 C 676.847656 516.742188 676.585938 517.390625 676.3125 518.03125 L 675.433594 519.933594 L 674.558594 521.839844 C 674.261719 522.46875 673.933594 523.085938 673.621094 523.714844 C 671.109375 528.699219 668.21875 533.507812 664.898438 538.007812 C 661.585938 542.507812 657.84375 546.703125 653.6875 550.449219 C 649.527344 554.183594 644.941406 557.425781 640.078125 560.167969 L 639.625 560.425781 L 639.160156 560.671875 L 638.234375 561.15625 L 637.304688 561.640625 C 636.996094 561.800781 636.691406 561.964844 636.371094 562.109375 C 635.105469 562.695312 633.859375 563.320312 632.566406 563.839844 C 630.007812 564.960938 627.371094 565.859375 624.722656 566.707031 C 619.394531 568.316406 613.9375 569.476562 608.421875 570.140625 C 602.917969 570.835938 597.367188 571.0625 591.828125 571.007812 C 629.730469 579.578125 666.46875 582.511719 691.261719 582.511719 C 812.816406 582.511719 799.914062 520.640625 839.3125 391.613281 C 864.464844 309.238281 882.945312 256.027344 871.257812 214.734375 " fill-opacity="1" fill-rule="nonzero"/></g></svg>